Jump_normalized_Precision Landing16_filtered_grf
version=1
nRows=20
nColumns=37
inDegrees=yes
endheader
time		1_ground_force_vx		1_ground_force_vy		1_ground_force_vz		1_ground_force_px		1_ground_force_py		1_ground_force_pz		1_ground_torque_x		1_ground_torque_y		1_ground_torque_z		2_ground_force_vx		2_ground_force_vy		2_ground_force_vz		2_ground_force_px		2_ground_force_py		2_ground_force_pz		2_ground_torque_x		2_ground_torque_y		2_ground_torque_z		3_ground_force_vx		3_ground_force_vy		3_ground_force_vz		3_ground_force_px		3_ground_force_py		3_ground_force_pz		3_ground_torque_x		3_ground_torque_y		3_ground_torque_z		4_ground_force_vx		4_ground_force_vy		4_ground_force_vz		4_ground_force_px		4_ground_force_py		4_ground_force_pz		4_ground_torque_x		4_ground_torque_y		4_ground_torque_z		
0.262000		-0.000000		-0.000000		-0.000000		0.082987		0.000000		0.398289		-0.000000		-0.000000		0.000000		-0.000000		-0.000000		-0.000000		-0.148927		0.000000		0.420500		-0.000000		0.000000		-0.000000		-17.098498		672.527401		142.444481		0.353240		1.253398		1.891612		0.899839		-35.392973		-7.496399		8.040139		638.755055		93.645670		-0.290390		1.263839		1.903120		0.429645		34.133488		5.004193		
0.265561		0.000000		-0.000000		-0.000000		0.082987		0.000000		0.398289		-0.000000		-0.000000		0.000000		-0.000000		-0.000000		-0.000000		-0.148927		0.000000		0.420500		-0.000000		0.000000		-0.000000		-17.618910		668.066406		141.673835		0.353229		1.253406		1.891628		0.927582		-35.171669		-7.458697		8.657732		639.972843		92.668171		-0.290400		1.263846		1.903161		0.462307		34.173356		4.948307		
0.269121		0.000000		0.000000		-0.000000		0.082987		0.000000		0.398289		0.000000		-0.000000		-0.000000		-0.000000		0.000000		-0.000000		-0.148927		0.000000		0.420500		-0.000000		0.000000		0.000000		-18.084464		663.640150		141.113869		0.353229		1.253406		1.891643		0.952324		-34.947145		-7.431025		9.111814		640.371761		91.316056		-0.290383		1.263856		1.903200		0.486550		34.194337		4.876061		
0.272682		0.000000		0.000000		0.000000		0.082987		0.000000		0.398289		0.000000		0.000000		-0.000000		-0.000000		0.000000		-0.000000		-0.148927		0.000000		0.420500		-0.000000		-0.000000		0.000000		-18.423378		659.096204		140.494399		0.353238		1.253400		1.891662		0.970409		-34.716362		-7.400216		9.499910		640.036377		89.730519		-0.290345		1.263866		1.903244		0.507596		34.198147		4.794442		
0.276242		0.000000		0.000000		0.000000		0.082987		0.000000		0.398289		0.000000		0.000000		-0.000000		0.000000		0.000000		0.000000		-0.148927		0.000000		0.420500		0.000000		-0.000000		0.000000		-18.557838		654.324713		139.535849		0.353248		1.253395		1.891688		0.977952		-34.481300		-7.353195		9.883765		639.148607		88.023729		-0.290289		1.263873		1.903292		0.528652		34.186041		4.708111		
0.279803		-0.000000		0.000000		0.000000		0.082987		0.000000		0.398289		0.000000		0.000000		-0.000000		0.000000		0.000000		0.000000		-0.148927		0.000000		0.420500		0.000000		-0.000000		0.000000		-18.429383		649.232735		138.109416		0.353249		1.253398		1.891724		0.972096		-34.245113		-7.284864		10.271377		637.897833		86.222832		-0.290227		1.263875		1.903343		0.550007		34.157847		4.617018		
0.283364		-0.000000		0.000000		0.000000		0.082987		0.000000		0.398289		0.000000		0.000000		-0.000000		0.000000		0.000000		0.000000		-0.148927		0.000000		0.420500		0.000000		-0.000000		0.000000		-17.996350		643.758617		136.162616		0.353233		1.253415		1.891764		0.950757		-34.010111		-7.193543		10.645569		636.405318		84.295724		-0.290169		1.263869		1.903393		0.570629		34.112889		4.518458		
0.286924		-0.000000		-0.000000		-0.000000		0.082987		0.000000		0.398289		-0.000000		0.000000		0.000000		0.000000		-0.000000		0.000000		-0.148927		0.000000		0.420500		0.000000		0.000000		-0.000000		-17.274142		637.831989		133.870173		0.353204		1.253445		1.891802		0.914705		-33.774677		-7.088735		10.987818		634.700820		82.207132		-0.290121		1.263858		1.903435		0.589508		34.052384		4.410501		
0.290485		-0.000000		-0.000000		-0.000000		0.082987		0.000000		0.398289		-0.000000		-0.000000		0.000000		0.000000		-0.000000		-0.000000		-0.148927		0.000000		0.420500		-0.000000		0.000000		-0.000000		-16.339409		631.398172		131.490887		0.353169		1.253485		1.891833		0.867820		-33.534885		-6.983758		11.298368		632.749424		79.947096		-0.290087		1.263846		1.903467		0.606760		33.980782		4.293429		
0.294045		-0.000000		-0.000000		-0.000000		0.082987		0.000000		0.398289		-0.000000		-0.000000		0.000000		-0.000000		-0.000000		-0.000000		-0.148927		0.000000		0.420500		-0.000000		0.000000		-0.000000		-15.325520		624.423956		129.294539		0.353139		1.253530		1.891856		0.816949		-33.285854		-6.892239		11.595911		630.495662		77.539800		-0.290065		1.263837		1.903483		0.623554		33.903996		4.169590		
0.297606		0.000000		-0.000000		-0.000000		0.082987		0.000000		0.398289		-0.000000		-0.000000		0.000000		-0.000000		-0.000000		-0.000000		-0.148927		0.000000		0.420500		-0.000000		0.000000		-0.000000		-14.369634		616.913438		127.392040		0.353114		1.253577		1.891882		0.769228		-33.024323		-6.819491		11.908466		627.903273		75.005453		-0.290053		1.263833		1.903487		0.641527		33.826090		4.040656		
0.301167		0.000000		0.000000		-0.000000		0.082987		0.000000		0.398289		0.000000		-0.000000		-0.000000		-0.000000		-0.000000		-0.000000		-0.148927		0.000000		0.420500		-0.000000		0.000000		0.000000		-13.560606		608.866789		125.810114		0.353095		1.253631		1.891925		0.729357		-32.747894		-6.766696		12.243964		624.965542		72.355413		-0.290048		1.263835		1.903478		0.661152		33.747013		3.907060		
0.304727		0.000000		0.000000		0.000000		0.082987		0.000000		0.398289		0.000000		0.000000		-0.000000		-0.000000		0.000000		-0.000000		-0.148927		0.000000		0.420500		-0.000000		-0.000000		0.000000		-12.903877		600.334340		124.286249		0.353078		1.253693		1.891986		0.697643		-32.456852		-6.719490		12.584907		621.703248		69.545983		-0.290048		1.263841		1.903464		0.681440		33.663587		3.765729		
0.308288		0.000000		0.000000		0.000000		0.082987		0.000000		0.398289		0.000000		0.000000		-0.000000		0.000000		0.000000		0.000000		-0.148927		0.000000		0.420500		0.000000		-0.000000		0.000000		-12.350833		591.399677		122.589900		0.353063		1.253763		1.892060		0.671437		-32.150718		-6.664449		12.883251		618.140190		66.564987		-0.290054		1.263850		1.903450		0.699697		33.571530		3.615179		
0.311848		-0.000000		0.000000		0.000000		0.082987		0.000000		0.398289		0.000000		0.000000		-0.000000		0.000000		0.000000		0.000000		-0.148927		0.000000		0.420500		0.000000		-0.000000		0.000000		-11.856293		582.222286		120.548946		0.353055		1.253830		1.892131		0.648174		-31.829649		-6.590319		13.098630		614.297115		63.398679		-0.290062		1.263858		1.903439		0.713631		33.467702		3.454040		
0.315409		-0.000000		0.000000		0.000000		0.082987		0.000000		0.398289		0.000000		0.000000		-0.000000		0.000000		0.000000		0.000000		-0.148927		0.000000		0.420500		0.000000		-0.000000		0.000000		-11.408528		573.034947		118.142134		0.353054		1.253883		1.892184		0.627055		-31.496163		-6.493537		13.224745		610.192492		60.067791		-0.290068		1.263864		1.903437		0.722809		33.350561		3.283052		
0.318970		-0.000000		-0.000000		-0.000000		0.082987		0.000000		0.398289		-0.000000		0.000000		0.000000		0.000000		-0.000000		0.000000		-0.148927		0.000000		0.420500		0.000000		0.000000		-0.000000		-11.036369		564.115814		115.490267		0.353054		1.253910		1.892212		0.609538		-31.156079		-6.378520		13.300013		605.861648		56.613918		-0.290070		1.263865		1.903442		0.729256		33.220119		3.104209		
0.322530		-0.000000		-0.000000		-0.000000		0.082987		0.000000		0.398289		-0.000000		-0.000000		0.000000		0.000000		-0.000000		-0.000000		-0.148927		0.000000		0.420500		-0.000000		0.000000		-0.000000		-10.775843		555.727744		112.784414		0.353046		1.253908		1.892221		0.597552		-30.816717		-6.254223		13.389579		601.372050		53.114492		-0.290064		1.263864		1.903451		0.736478		33.077770		2.921500		
0.326091		-0.000000		-0.000000		-0.000000		0.082987		0.000000		0.398289		-0.000000		-0.000000		0.000000		-0.000000		-0.000000		-0.000000		-0.148927		0.000000		0.420500		-0.000000		0.000000		-0.000000		-10.668143		548.046198		110.197731		0.353019		1.253878		1.892217		0.593409		-30.484746		-6.129683		13.557590		596.829298		49.641565		-0.290043		1.263863		1.903463		0.747980		32.927393		2.738750		
0.329652		0.000000		-0.000000		-0.000000		0.082987		0.000000		0.398289		-0.000000		-0.000000		0.000000		-0.000000		-0.000000		-0.000000		-0.148927		0.000000		0.420500		-0.000000		0.000000		-0.000000		-10.723309		541.121357		107.799898		0.352978		1.253838		1.892211		0.597797		-30.166127		-6.009567		13.827912		592.353472		46.332641		-0.290012		1.263865		1.903475		0.765115		32.775624		2.563639		
